0
SECTION
2
HEADER
9
$INSUNITS
70
4
9
$ACADVER
1
AC1014
9
$HANDSEED
5
FFFF
0
ENDSEC
0
SECTION
2
TABLES
0
TABLE
2
VPORT
5
8
100
AcDbSymbolTable
0
ENDTAB
0
TABLE
2
LTYPE
5
5
100
AcDbSymbolTable
0
LTYPE
5
14
100
AcDbSymbolTableRecord
100
AcDbLinetypeTableRecord
2
BYBLOCK
70
0
0
LTYPE
5
15
100
AcDbSymbolTableRecord
100
AcDbLinetypeTableRecord
2
BYLAYER
70
0
0
ENDTAB
0
TABLE
2
LAYER
5
2
100
AcDbSymbolTable
70
2
0
LAYER
5
50
100
AcDbSymbolTableRecord
100
AcDbLayerTableRecord
2
0
70
0
6
CONTINUOUS
0
ENDTAB
0
TABLE
2
STYLE
5
3
100
AcDbSymbolTable
70
1
0
STYLE
5
11
100
AcDbSymbolTableRecord
100
AcDbTextStyleTableRecord
2
STANDARD
70
0
0
ENDTAB
0
TABLE
2
VIEW
5
6
100
AcDbSymbolTable
70
0
0
ENDTAB
0
TABLE
2
UCS
5
7
100
AcDbSymbolTable
70
0
0
ENDTAB
0
TABLE
2
APPID
5
9
100
AcDbSymbolTable
70
2
0
APPID
5
12
100
AcDbSymbolTableRecord
100
AcDbRegAppTableRecord
2
ACAD
70
0
0
ENDTAB
0
TABLE
2
DIMSTYLE
5
A
100
AcDbSymbolTable
70
1
0
ENDTAB
0
TABLE
2
BLOCK_RECORD
5
1
100
AcDbSymbolTable
70
1
0
BLOCK_RECORD
5
1F
100
AcDbSymbolTableRecord
100
AcDbBlockTableRecord
2
*MODEL_SPACE
0
BLOCK_RECORD
5
1B
100
AcDbSymbolTableRecord
100
AcDbBlockTableRecord
2
*PAPER_SPACE
0
ENDTAB
0
ENDSEC
0
SECTION
2
BLOCKS
0
BLOCK
5
20
100
AcDbEntity
100
AcDbBlockBegin
2
*MODEL_SPACE
0
ENDBLK
5
21
100
AcDbEntity
100
AcDbBlockEnd
0
BLOCK
5
1C
100
AcDbEntity
100
AcDbBlockBegin
2
*PAPER_SPACE
0
ENDBLK
5
1D
100
AcDbEntity
100
AcDbBlockEnd
0
ENDSEC
0
SECTION
2
ENTITIES
0
LWPOLYLINE
5
100
100
AcDbEntity
8
0
100
AcDbPolyline
90
4
70
1
43
0.0
10
-386.00000000000017
20
85
10
-386.00000000000017
20
92
10
-389.00000000000011
20
92
10
-389.00000000000011
20
85
0
LWPOLYLINE
5
101
100
AcDbEntity
8
0
100
AcDbPolyline
90
4
70
1
43
0.0
10
-477.00000000000011
20
92
10
-477.00000000000011
20
85
10
-474.00000000000011
20
85
10
-474.00000000000011
20
92
0
LWPOLYLINE
5
102
100
AcDbEntity
8
0
100
AcDbPolyline
90
4
70
1
43
0.0
10
-363.00000000000017
20
85
10
-363.00000000000017
20
92
10
-366.00000000000017
20
92
10
-366.00000000000017
20
85
0
LWPOLYLINE
5
103
100
AcDbEntity
8
0
100
AcDbPolyline
90
4
70
1
43
0.0
10
-500.00000000000006
20
92
10
-500.00000000000006
20
85
10
-497.00000000000011
20
85
10
-497.00000000000011
20
92
0
LWPOLYLINE
5
104
100
AcDbEntity
8
0
100
AcDbPolyline
90
4
70
1
43
0.0
10
-462
20
378.00000000000006
10
-469.00000000000006
20
378.00000000000006
10
-469.00000000000006
20
375
10
-462
20
375
0
LWPOLYLINE
5
105
100
AcDbEntity
8
0
100
AcDbPolyline
90
4
70
1
43
0.0
10
-462
20
401
10
-469.00000000000006
20
401
10
-469.00000000000006
20
398.00000000000006
10
-462
20
398.00000000000006
0
LWPOLYLINE
5
106
100
AcDbEntity
8
0
100
AcDbPolyline
90
18
70
1
43
0.0
10
-300
20
629.5
10
-300
20
105
10
-312
20
105.00000000000001
42
0.4142135623730881
10
-315
20
102.00000000000001
10
-315
20
53.000000000000007
42
-0.41421356237309509
10
-318
20
50
10
-507
20
50.000000000000036
42
-0.41421356237309509
10
-510
20
53.000000000000007
10
-510.00000000000006
20
102.00000000000001
42
0.41421356237311407
10
-513
20
105
10
-597
20
105.00000000000003
42
-0.41421356237309165
10
-600
20
107.99999999999997
10
-600
20
594.5
42
-0.41421356237309509
10
-597
20
597.5
10
-571
20
597.50000000000011
42
0.41421356237315055
10
-568
20
600.5
10
-568
20
626.5
42
-0.41421356237309509
10
-565
20
629.5
0
LWPOLYLINE
5
107
100
AcDbEntity
8
0
100
AcDbPolyline
90
4
70
1
43
0.0
10
-548
20
320.50000000000006
10
-548
20
327.5
10
-551
20
327.5
10
-551
20
320.50000000000006
0
LWPOLYLINE
5
108
100
AcDbEntity
8
0
100
AcDbPolyline
90
4
70
1
43
0.0
10
-548
20
420.50000000000006
10
-548
20
427.5
10
-551
20
427.5
10
-551
20
420.50000000000006
0
LWPOLYLINE
5
109
100
AcDbEntity
8
0
100
AcDbPolyline
90
4
70
1
43
0.0
10
-548
20
520.5
10
-548
20
527.5
10
-551
20
527.5
10
-551
20
520.5
0
LWPOLYLINE
5
110
100
AcDbEntity
8
0
100
AcDbPolyline
90
4
70
1
43
0.0
10
-538
20
185
10
-538
20
192.00000000000003
10
-541
20
192.00000000000003
10
-541
20
185
0
LWPOLYLINE
5
111
100
AcDbEntity
8
0
100
AcDbPolyline
90
4
70
1
43
0.0
10
-520
20
185
10
-520
20
192.00000000000003
10
-523
20
192.00000000000003
10
-523
20
185
0
LWPOLYLINE
5
112
100
AcDbEntity
8
0
100
AcDbPolyline
90
4
70
1
43
0.0
10
-520
20
320.50000000000006
10
-520
20
327.5
10
-523
20
327.5
10
-523
20
320.50000000000006
0
LWPOLYLINE
5
113
100
AcDbEntity
8
0
100
AcDbPolyline
90
4
70
1
43
0.0
10
-520
20
420.50000000000006
10
-520
20
427.5
10
-523
20
427.5
10
-523
20
420.50000000000006
0
LWPOLYLINE
5
114
100
AcDbEntity
8
0
100
AcDbPolyline
90
4
70
1
43
0.0
10
-520
20
520.5
10
-520
20
527.5
10
-523
20
527.5
10
-523
20
520.5
0
LWPOLYLINE
5
115
100
AcDbEntity
8
0
100
AcDbPolyline
90
4
70
1
43
0.0
10
-450
20
145
10
-450
20
148
10
-457
20
148
10
-457
20
145
0
LWPOLYLINE
5
116
100
AcDbEntity
8
0
100
AcDbPolyline
90
4
70
1
43
0.0
10
-450
20
168
10
-450
20
171
10
-457
20
171
10
-457
20
168
0
LWPOLYLINE
5
117
100
AcDbEntity
8
0
100
AcDbPolyline
90
4
70
1
43
0.0
10
-423.00000000000006
20
178
10
-423.00000000000006
20
185
10
-426
20
185
10
-426
20
178
0
LWPOLYLINE
5
118
100
AcDbEntity
8
0
100
AcDbPolyline
90
4
70
1
43
0.0
10
-405
20
178
10
-405
20
185
10
-408.00000000000006
20
185
10
-408.00000000000006
20
178
0
LWPOLYLINE
5
119
100
AcDbEntity
8
0
100
AcDbPolyline
90
4
70
1
43
0.0
10
-378.00000000000006
20
178
10
-378.00000000000006
20
185
10
-381
20
185
10
-381
20
178
0
LWPOLYLINE
5
120
100
AcDbEntity
8
0
100
AcDbPolyline
90
4
70
1
43
0.0
10
-360
20
178
10
-360
20
185
10
-363.00000000000006
20
185
10
-363.00000000000006
20
178
0
LWPOLYLINE
5
121
100
AcDbEntity
8
0
100
AcDbPolyline
90
4
70
1
43
0.0
10
-355
20
375
10
-355
20
378.00000000000006
10
-362
20
378.00000000000006
10
-362
20
375
0
LWPOLYLINE
5
122
100
AcDbEntity
8
0
100
AcDbPolyline
90
4
70
1
43
0.0
10
-355
20
398.00000000000006
10
-355
20
401
10
-362
20
401
10
-362
20
398.00000000000006
0
LWPOLYLINE
5
123
100
AcDbEntity
8
0
100
AcDbPolyline
90
4
70
1
43
0.0
10
-340
20
145
10
-340
20
148
10
-347
20
148
10
-347
20
145
0
LWPOLYLINE
5
124
100
AcDbEntity
8
0
100
AcDbPolyline
90
4
70
1
43
0.0
10
-340
20
168
10
-340
20
171
10
-347
20
171
10
-347
20
168
0
CIRCLE
5
125
100
AcDbEntity
8
0
100
AcDbCircle
10
-585
20
197.00000000000003
30
0
40
3.25
210
0
220
0
230
1
0
CIRCLE
5
126
100
AcDbEntity
8
0
100
AcDbCircle
10
-585
20
321
30
0
40
3.25
210
0
220
0
230
1
0
CIRCLE
5
127
100
AcDbEntity
8
0
100
AcDbCircle
10
-585
20
445
30
0
40
3.25
210
0
220
0
230
1
0
CIRCLE
5
128
100
AcDbEntity
8
0
100
AcDbCircle
10
-585
20
569
30
0
40
3.25
210
0
220
0
230
1
0
CIRCLE
5
129
100
AcDbEntity
8
0
100
AcDbCircle
10
-480
20
65
30
0
40
3.25
210
0
220
0
230
1
0
CIRCLE
5
130
100
AcDbEntity
8
0
100
AcDbCircle
10
-475
20
465
30
0
40
2.1499999999999799
210
0
220
0
230
1
0
CIRCLE
5
131
100
AcDbEntity
8
0
100
AcDbCircle
10
-475
20
515
30
0
40
2.1499999999999799
210
0
220
0
230
1
0
CIRCLE
5
132
100
AcDbEntity
8
0
100
AcDbCircle
10
-474.00000000000006
20
220
30
0
40
2.1499999999999799
210
0
220
0
230
1
0
CIRCLE
5
133
100
AcDbEntity
8
0
100
AcDbCircle
10
-474.00000000000006
20
350
30
0
40
2.1499999999999799
210
0
220
0
230
1
0
CIRCLE
5
134
100
AcDbEntity
8
0
100
AcDbCircle
10
-415
20
65
30
0
40
3.25
210
0
220
0
230
1
0
CIRCLE
5
135
100
AcDbEntity
8
0
100
AcDbCircle
10
-352
20
614.5
30
0
40
3.2499999999999902
210
0
220
0
230
1
0
CIRCLE
5
136
100
AcDbEntity
8
0
100
AcDbCircle
10
-350
20
220
30
0
40
2.1499999999999799
210
0
220
0
230
1
0
CIRCLE
5
137
100
AcDbEntity
8
0
100
AcDbCircle
10
-350
20
350
30
0
40
2.1499999999999799
210
0
220
0
230
1
0
CIRCLE
5
138
100
AcDbEntity
8
0
100
AcDbCircle
10
-325
20
515
30
0
40
2.1500000000000301
210
0
220
0
230
1
0
CIRCLE
5
139
100
AcDbEntity
8
0
100
AcDbCircle
10
-325
20
465
30
0
40
2.1500000000000301
210
0
220
0
230
1
0
CIRCLE
5
140
100
AcDbEntity
8
0
100
AcDbCircle
10
-350
20
65
30
0
40
3.25
210
0
220
0
230
1
0
CIRCLE
5
141
100
AcDbEntity
8
0
100
AcDbCircle
10
-414.00000000000006
20
614.5
30
0
40
3.2499999999999902
210
0
220
0
230
1
0
CIRCLE
5
142
100
AcDbEntity
8
0
100
AcDbCircle
10
-476
20
614.5
30
0
40
3.2499999999999902
210
0
220
0
230
1
0
CIRCLE
5
143
100
AcDbEntity
8
0
100
AcDbCircle
10
-518
20
577.5
30
0
40
15
210
0
220
0
230
1
0
CIRCLE
5
144
100
AcDbEntity
8
0
100
AcDbCircle
10
-538
20
614.5
30
0
40
3.2499999999999902
210
0
220
0
230
1
0
CIRCLE
5
145
100
AcDbEntity
8
0
100
AcDbCircle
10
-585
20
507
30
0
40
3.25
210
0
220
0
230
1
0
CIRCLE
5
146
100
AcDbEntity
8
0
100
AcDbCircle
10
-585
20
383.00000000000006
30
0
40
3.25
210
0
220
0
230
1
0
CIRCLE
5
147
100
AcDbEntity
8
0
100
AcDbCircle
10
-585
20
259
30
0
40
3.25
210
0
220
0
230
1
0
CIRCLE
5
148
100
AcDbEntity
8
0
100
AcDbCircle
10
-585
20
135
30
0
40
3.25
210
0
220
0
230
1
0
ENDSEC
0
SECTION
2
OBJECTS
0
DICTIONARY
5
C
100
AcDbDictionary
3
ACAD_GROUP
350
D
3
ACAD_MLINESTYLE
350
17
0
DICTIONARY
5
D
100
AcDbDictionary
0
DICTIONARY
5
1A
330
C
100
AcDbDictionary
0
DICTIONARY
5
17
100
AcDbDictionary
0
ENDSEC
0
EOF
