0
SECTION
2
HEADER
9
$INSUNITS
70
4
9
$ACADVER
1
AC1014
9
$HANDSEED
5
FFFF
0
ENDSEC
0
SECTION
2
TABLES
0
TABLE
2
VPORT
5
8
100
AcDbSymbolTable
0
ENDTAB
0
TABLE
2
LTYPE
5
5
100
AcDbSymbolTable
0
LTYPE
5
14
100
AcDbSymbolTableRecord
100
AcDbLinetypeTableRecord
2
BYBLOCK
70
0
0
LTYPE
5
15
100
AcDbSymbolTableRecord
100
AcDbLinetypeTableRecord
2
BYLAYER
70
0
0
ENDTAB
0
TABLE
2
LAYER
5
2
100
AcDbSymbolTable
70
2
0
LAYER
5
50
100
AcDbSymbolTableRecord
100
AcDbLayerTableRecord
2
0
70
0
6
CONTINUOUS
0
ENDTAB
0
TABLE
2
STYLE
5
3
100
AcDbSymbolTable
70
1
0
STYLE
5
11
100
AcDbSymbolTableRecord
100
AcDbTextStyleTableRecord
2
STANDARD
70
0
0
ENDTAB
0
TABLE
2
VIEW
5
6
100
AcDbSymbolTable
70
0
0
ENDTAB
0
TABLE
2
UCS
5
7
100
AcDbSymbolTable
70
0
0
ENDTAB
0
TABLE
2
APPID
5
9
100
AcDbSymbolTable
70
2
0
APPID
5
12
100
AcDbSymbolTableRecord
100
AcDbRegAppTableRecord
2
ACAD
70
0
0
ENDTAB
0
TABLE
2
DIMSTYLE
5
A
100
AcDbSymbolTable
70
1
0
ENDTAB
0
TABLE
2
BLOCK_RECORD
5
1
100
AcDbSymbolTable
70
1
0
BLOCK_RECORD
5
1F
100
AcDbSymbolTableRecord
100
AcDbBlockTableRecord
2
*MODEL_SPACE
0
BLOCK_RECORD
5
1B
100
AcDbSymbolTableRecord
100
AcDbBlockTableRecord
2
*PAPER_SPACE
0
ENDTAB
0
ENDSEC
0
SECTION
2
BLOCKS
0
BLOCK
5
20
100
AcDbEntity
100
AcDbBlockBegin
2
*MODEL_SPACE
0
ENDBLK
5
21
100
AcDbEntity
100
AcDbBlockEnd
0
BLOCK
5
1C
100
AcDbEntity
100
AcDbBlockBegin
2
*PAPER_SPACE
0
ENDBLK
5
1D
100
AcDbEntity
100
AcDbBlockEnd
0
ENDSEC
0
SECTION
2
ENTITIES
0
LWPOLYLINE
5
100
100
AcDbEntity
8
0
100
AcDbPolyline
90
8
70
1
43
0.0
10
-77.723413507963542
20
-81.269560663743917
10
-89.653669959688301
20
-49.500000000000185
10
-118.34633004031174
20
-49.499999999999964
10
-130.27658649203525
20
-81.26956066374413
42
0.18157214368946031
10
-130.27658649203525
20
-83.73043933625604
10
-118.34633004031178
20
-115.50000000000004
10
-89.653669959688202
20
-115.49999999999977
10
-77.723413507963542
20
-83.730439336256225
42
0.18157214368948241
0
LWPOLYLINE
5
101
100
AcDbEntity
8
0
100
AcDbPolyline
90
8
70
1
43
0.0
10
-147.72341350796353
20
-81.269560663743917
42
-0.18157214368949656
10
-147.7234135079635
20
-83.730439336256211
10
-159.65366995968819
20
-115.49999999999977
10
-188.34633004031176
20
-115.50000000000004
10
-200.27658649203522
20
-83.730439336256083
42
-0.18157214368947067
10
-200.27658649203522
20
-81.26956066374413
10
-188.34633004031167
20
-49.499999999999964
10
-159.6536699596883
20
-49.500000000000185
0
CIRCLE
5
102
100
AcDbEntity
8
0
100
AcDbCircle
10
-240.60000000000002
20
-595
30
0
40
3.25
210
0
220
0
230
1
0
CIRCLE
5
103
100
AcDbEntity
8
0
100
AcDbCircle
10
-181.30000000000001
20
-595
30
0
40
3.25
210
0
220
0
230
1
0
CIRCLE
5
104
100
AcDbEntity
8
0
100
AcDbCircle
10
-122.00000000000001
20
-15
30
0
40
3.25
210
0
220
-0
230
1
0
CIRCLE
5
105
100
AcDbEntity
8
0
100
AcDbCircle
10
-15
20
-488.00000000000006
30
0
40
3.25
210
0
220
0
230
1
0
CIRCLE
5
106
100
AcDbEntity
8
0
100
AcDbCircle
10
-15
20
-427
30
0
40
3.25
210
0
220
0
230
1
0
CIRCLE
5
107
100
AcDbEntity
8
0
100
AcDbCircle
10
-15
20
-366
30
0
40
3.25
210
0
220
0
230
1
0
CIRCLE
5
108
100
AcDbEntity
8
0
100
AcDbCircle
10
-15
20
-305
30
0
40
3.25
210
0
220
0
230
1
0
CIRCLE
5
109
100
AcDbEntity
8
0
100
AcDbCircle
10
-15
20
-244.00000000000003
30
0
40
3.25
210
0
220
0
230
1
0
CIRCLE
5
110
100
AcDbEntity
8
0
100
AcDbCircle
10
-15
20
-183
30
0
40
3.25
210
0
220
0
230
1
0
CIRCLE
5
111
100
AcDbEntity
8
0
100
AcDbCircle
10
-15
20
-122.00000000000001
30
0
40
3.25
210
0
220
0
230
1
0
CIRCLE
5
112
100
AcDbEntity
8
0
100
AcDbCircle
10
-122.00000000000001
20
-595
30
0
40
3.25
210
0
220
0
230
1
0
CIRCLE
5
113
100
AcDbEntity
8
0
100
AcDbCircle
10
-181.30000000000001
20
-15
30
0
40
3.25
210
0
220
-0
230
1
0
CIRCLE
5
114
100
AcDbEntity
8
0
100
AcDbCircle
10
-240.60000000000002
20
-15
30
0
40
3.25
210
0
220
-0
230
1
0
LWPOLYLINE
5
115
100
AcDbEntity
8
0
100
AcDbPolyline
90
21
70
1
43
0.0
10
-91.999999999999901
20
-29.999999999999901
10
-50.316901882679339
20
-71.683098117320569
10
-50
20
-71.683098117320569
10
-50
20
-71.999999999999872
10
-30
20
-91.999999999999901
10
-2
20
-91.999999999999901
42
-0.4142135623730977
10
-5.9806232428662093e-17
20
-93.999999999999915
10
1.8041124150158794e-14
20
-516
42
-0.41421356237309509
10
-2.0000000000000107
20
-518
10
-30
20
-518
10
-91.999999999999901
20
-580
10
-91.999999999999943
20
-608
42
-0.4142135623730977
10
-93.999999999999915
20
-610
10
-300
20
-610
10
-300
20
-598.2484611741562
42
1.0312575156051351
10
-300
20
-591.75153882584402
10
-300
20
-18.248461174156155
42
1.031257515605134
10
-300
20
-11.751538825843802
10
-300
20
0
10
-93.999999999999901
20
-7.2164496600635175e-15
42
-0.41421356237309526
10
-91.999999999999901
20
-2.0000000000000018
0
ENDSEC
0
SECTION
2
OBJECTS
0
DICTIONARY
5
C
100
AcDbDictionary
3
ACAD_GROUP
350
D
3
ACAD_MLINESTYLE
350
17
0
DICTIONARY
5
D
100
AcDbDictionary
0
DICTIONARY
5
1A
330
C
100
AcDbDictionary
0
DICTIONARY
5
17
100
AcDbDictionary
0
ENDSEC
0
EOF
