0
SECTION
2
HEADER
9
$INSUNITS
70
4
9
$ACADVER
1
AC1014
9
$HANDSEED
5
FFFF
0
ENDSEC
0
SECTION
2
TABLES
0
TABLE
2
VPORT
5
8
100
AcDbSymbolTable
0
ENDTAB
0
TABLE
2
LTYPE
5
5
100
AcDbSymbolTable
0
LTYPE
5
14
100
AcDbSymbolTableRecord
100
AcDbLinetypeTableRecord
2
BYBLOCK
70
0
0
LTYPE
5
15
100
AcDbSymbolTableRecord
100
AcDbLinetypeTableRecord
2
BYLAYER
70
0
0
ENDTAB
0
TABLE
2
LAYER
5
2
100
AcDbSymbolTable
70
2
0
LAYER
5
50
100
AcDbSymbolTableRecord
100
AcDbLayerTableRecord
2
0
70
0
6
CONTINUOUS
0
ENDTAB
0
TABLE
2
STYLE
5
3
100
AcDbSymbolTable
70
1
0
STYLE
5
11
100
AcDbSymbolTableRecord
100
AcDbTextStyleTableRecord
2
STANDARD
70
0
0
ENDTAB
0
TABLE
2
VIEW
5
6
100
AcDbSymbolTable
70
0
0
ENDTAB
0
TABLE
2
UCS
5
7
100
AcDbSymbolTable
70
0
0
ENDTAB
0
TABLE
2
APPID
5
9
100
AcDbSymbolTable
70
2
0
APPID
5
12
100
AcDbSymbolTableRecord
100
AcDbRegAppTableRecord
2
ACAD
70
0
0
ENDTAB
0
TABLE
2
DIMSTYLE
5
A
100
AcDbSymbolTable
70
1
0
ENDTAB
0
TABLE
2
BLOCK_RECORD
5
1
100
AcDbSymbolTable
70
1
0
BLOCK_RECORD
5
1F
100
AcDbSymbolTableRecord
100
AcDbBlockTableRecord
2
*MODEL_SPACE
0
BLOCK_RECORD
5
1B
100
AcDbSymbolTableRecord
100
AcDbBlockTableRecord
2
*PAPER_SPACE
0
ENDTAB
0
ENDSEC
0
SECTION
2
BLOCKS
0
BLOCK
5
20
100
AcDbEntity
100
AcDbBlockBegin
2
*MODEL_SPACE
0
ENDBLK
5
21
100
AcDbEntity
100
AcDbBlockEnd
0
BLOCK
5
1C
100
AcDbEntity
100
AcDbBlockBegin
2
*PAPER_SPACE
0
ENDBLK
5
1D
100
AcDbEntity
100
AcDbBlockEnd
0
ENDSEC
0
SECTION
2
ENTITIES
0
LWPOLYLINE
5
100
100
AcDbEntity
8
0
100
AcDbPolyline
90
4
70
1
43
0.0
10
-149.00000000000017
20
92
10
-152.00000000000017
20
92
10
-152.00000000000017
20
85
10
-149.00000000000017
20
85
0
LWPOLYLINE
5
101
100
AcDbEntity
8
0
100
AcDbPolyline
90
4
70
1
43
0.0
10
-220.00000000000017
20
92
10
-220.00000000000017
20
85
10
-217.00000000000017
20
85
10
-217.00000000000017
20
92
0
LWPOLYLINE
5
102
100
AcDbEntity
8
0
100
AcDbPolyline
90
4
70
1
43
0.0
10
-126.00000000000016
20
92
10
-129.00000000000017
20
92
10
-129.00000000000017
20
85
10
-126.00000000000016
20
85
0
LWPOLYLINE
5
103
100
AcDbEntity
8
0
100
AcDbPolyline
90
4
70
1
43
0.0
10
-243.00000000000017
20
92
10
-243.00000000000017
20
85
10
-240.00000000000017
20
85
10
-240.00000000000017
20
92
0
LWPOLYLINE
5
104
100
AcDbEntity
8
0
100
AcDbPolyline
90
4
70
1
43
0.0
10
-123
20
422.00000000000011
10
-123
20
419.00000000000006
10
-116.00000000000001
20
419.00000000000006
10
-116.00000000000001
20
422.00000000000011
0
LWPOLYLINE
5
105
100
AcDbEntity
8
0
100
AcDbPolyline
90
4
70
1
43
0.0
10
-47.000000923871994
20
356
10
-44.000000923872008
20
356
10
-44.000000923872008
20
363.00000000000006
10
-47.000000923871994
20
363.00000000000006
0
LWPOLYLINE
5
106
100
AcDbEntity
8
0
100
AcDbPolyline
90
4
70
1
43
0.0
10
-172
20
193
10
-172
20
186
10
-169
20
186
10
-169
20
193
0
LWPOLYLINE
5
107
100
AcDbEntity
8
0
100
AcDbPolyline
90
4
70
1
43
0.0
10
-223
20
422.00000000000011
10
-223
20
419.00000000000006
10
-216
20
419.00000000000006
10
-216
20
422.00000000000011
0
LWPOLYLINE
5
108
100
AcDbEntity
8
0
100
AcDbPolyline
90
4
70
1
43
0.0
10
-123
20
445.00000000000011
10
-123
20
442.00000000000011
10
-116.00000000000001
20
442.00000000000011
10
-116.00000000000001
20
445.00000000000011
0
LWPOLYLINE
5
109
100
AcDbEntity
8
0
100
AcDbPolyline
90
4
70
1
43
0.0
10
-65.000000923871994
20
363.00000000000006
10
-65.000000923871994
20
356
10
-62.000000923871994
20
356
10
-62.000000923871994
20
363.00000000000006
0
LWPOLYLINE
5
110
100
AcDbEntity
8
0
100
AcDbPolyline
90
4
70
1
43
0.0
10
-195
20
193
10
-195
20
186
10
-192
20
186
10
-192
20
193
0
LWPOLYLINE
5
111
100
AcDbEntity
8
0
100
AcDbPolyline
90
4
70
1
43
0.0
10
-216
20
442.00000000000011
10
-216
20
445.00000000000011
10
-223
20
445.00000000000011
10
-223
20
442.00000000000011
0
CIRCLE
5
112
100
AcDbEntity
8
0
100
AcDbCircle
10
-140
20
514
30
0
40
2.6500000000000057
210
0
220
0
230
1
0
CIRCLE
5
113
100
AcDbEntity
8
0
100
AcDbCircle
10
-140
20
465
30
0
40
2.6500000000000057
210
0
220
0
230
1
0
CIRCLE
5
114
100
AcDbEntity
8
0
100
AcDbCircle
10
-72.000000000000099
20
412
30
0
40
1.6000000000000014
210
0
220
0
230
1
0
CIRCLE
5
115
100
AcDbEntity
8
0
100
AcDbCircle
10
-106.00000000000001
20
412
30
0
40
1.6000000000000014
210
0
220
0
230
1
0
LWPOLYLINE
5
116
100
AcDbEntity
8
0
100
AcDbPolyline
90
18
70
1
43
0.0
10
-300
20
629.5
10
-35.000000000000099
20
629.5
42
-0.41421356237309509
10
-32.000000000000099
20
626.5
10
-32.000000000000099
20
600.5
42
0.41421356237312157
10
-29.000000000000099
20
597.5
10
-3.0000000000000302
20
597.5
42
-0.41421356237309509
10
-3.4017323915904498e-14
20
594.5
10
6.6613381477509392e-15
20
108
42
-0.4142135623730957
10
-3.0000000000000071
20
105
10
-87.000000000000014
20
105.00000000000001
42
0.4142135623730881
10
-90
20
102.00000000000001
10
-90
20
53.000000000000007
42
-0.41421356237309509
10
-93
20
50
10
-282
20
50.000000000000036
42
-0.41421356237309509
10
-285
20
53.000000000000007
10
-285
20
102.00000000000001
42
0.41421356237309331
10
-288
20
105
10
-300
20
105
0
CIRCLE
5
117
100
AcDbEntity
8
0
100
AcDbCircle
10
-251.50000000000003
20
238.5
30
0
40
1.6000000000000203
210
0
220
0
230
1
0
CIRCLE
5
118
100
AcDbEntity
8
0
100
AcDbCircle
10
-251.50000000000003
20
296.5
30
0
40
1.6000000000000203
210
0
220
0
230
1
0
CIRCLE
5
119
100
AcDbEntity
8
0
100
AcDbCircle
10
-250
20
65
30
0
40
3.25
210
0
220
0
230
1
0
CIRCLE
5
120
100
AcDbEntity
8
0
100
AcDbCircle
10
-248
20
614.5
30
0
40
3.2499999999999902
210
0
220
0
230
1
0
CIRCLE
5
121
100
AcDbEntity
8
0
100
AcDbCircle
10
-235
20
569.5
30
0
40
10
210
0
220
0
230
1
0
CIRCLE
5
122
100
AcDbEntity
8
0
100
AcDbCircle
10
-202.5
20
238.5
30
0
40
1.5999999999999903
210
0
220
0
230
1
0
CIRCLE
5
123
100
AcDbEntity
8
0
100
AcDbCircle
10
-202.5
20
296.5
30
0
40
1.5999999999999903
210
0
220
0
230
1
0
CIRCLE
5
124
100
AcDbEntity
8
0
100
AcDbCircle
10
-186
20
614.5
30
0
40
3.2499999999999902
210
0
220
0
230
1
0
CIRCLE
5
125
100
AcDbEntity
8
0
100
AcDbCircle
10
-185
20
65
30
0
40
3.25
210
0
220
0
230
1
0
CIRCLE
5
126
100
AcDbEntity
8
0
100
AcDbCircle
10
-154.5
20
219.50000000000003
30
0
40
2.1500000000000101
210
0
220
0
230
1
0
CIRCLE
5
127
100
AcDbEntity
8
0
100
AcDbCircle
10
-154.5
20
310.5
30
0
40
2.1500000000000101
210
0
220
0
230
1
0
CIRCLE
5
128
100
AcDbEntity
8
0
100
AcDbCircle
10
-124
20
614.5
30
0
40
3.2499999999999902
210
0
220
0
230
1
0
CIRCLE
5
129
100
AcDbEntity
8
0
100
AcDbCircle
10
-120
20
65
30
0
40
3.25
210
0
220
0
230
1
0
CIRCLE
5
130
100
AcDbEntity
8
0
100
AcDbCircle
10
-106.00000000000001
20
378.00000000000006
30
0
40
1.5999999999999903
210
0
220
0
230
1
0
CIRCLE
5
131
100
AcDbEntity
8
0
100
AcDbCircle
10
-72.000000000000099
20
378.00000000000006
30
0
40
1.5999999999999903
210
0
220
0
230
1
0
CIRCLE
5
132
100
AcDbEntity
8
0
100
AcDbCircle
10
-63.500000000000007
20
219.50000000000003
30
0
40
2.1500000000000101
210
0
220
0
230
1
0
CIRCLE
5
133
100
AcDbEntity
8
0
100
AcDbCircle
10
-63.500000000000007
20
310.5
30
0
40
2.1499999999999999
210
0
220
0
230
1
0
CIRCLE
5
134
100
AcDbEntity
8
0
100
AcDbCircle
10
-62.000000000000099
20
614.5
30
0
40
3.2499999999999902
210
0
220
0
230
1
0
CIRCLE
5
135
100
AcDbEntity
8
0
100
AcDbCircle
10
-15
20
135
30
0
40
3.25
210
0
220
0
230
1
0
CIRCLE
5
136
100
AcDbEntity
8
0
100
AcDbCircle
10
-15
20
197.00000000000003
30
0
40
3.25
210
0
220
0
230
1
0
CIRCLE
5
137
100
AcDbEntity
8
0
100
AcDbCircle
10
-15
20
259
30
0
40
3.25
210
0
220
0
230
1
0
CIRCLE
5
138
100
AcDbEntity
8
0
100
AcDbCircle
10
-15
20
321
30
0
40
3.25
210
0
220
0
230
1
0
CIRCLE
5
139
100
AcDbEntity
8
0
100
AcDbCircle
10
-15
20
383.00000000000006
30
0
40
3.25
210
0
220
0
230
1
0
CIRCLE
5
140
100
AcDbEntity
8
0
100
AcDbCircle
10
-15
20
445
30
0
40
3.25
210
0
220
0
230
1
0
CIRCLE
5
141
100
AcDbEntity
8
0
100
AcDbCircle
10
-15
20
507
30
0
40
3.25
210
0
220
0
230
1
0
CIRCLE
5
142
100
AcDbEntity
8
0
100
AcDbCircle
10
-15
20
569
30
0
40
3.25
210
0
220
0
230
1
0
LWPOLYLINE
5
143
100
AcDbEntity
8
0
100
AcDbPolyline
90
4
70
1
43
0.0
10
-95.499999999999901
20
562.5
10
-95.499999999999901
20
565.5
10
-102.5
20
565.5
10
-102.5
20
562.5
0
LWPOLYLINE
5
144
100
AcDbEntity
8
0
100
AcDbPolyline
90
4
70
1
43
0.0
10
-95.499999999999901
20
539.5
10
-95.499999999999901
20
542.5
10
-102.5
20
542.5
10
-102.5
20
539.5
0
LWPOLYLINE
5
145
100
AcDbEntity
8
0
100
AcDbPolyline
90
4
70
1
43
0.0
10
-110
20
348.00000000000006
10
-110
20
351
10
-117.00000000000001
20
351
10
-117.00000000000001
20
348.00000000000006
0
LWPOLYLINE
5
146
100
AcDbEntity
8
0
100
AcDbPolyline
90
4
70
1
43
0.0
10
-110
20
330
10
-110
20
333.00000000000006
10
-117.00000000000001
20
333.00000000000006
10
-117.00000000000001
20
330
0
LWPOLYLINE
5
147
100
AcDbEntity
8
0
100
AcDbPolyline
90
4
70
1
43
0.0
10
-120
20
168
10
-120
20
171
10
-127.00000000000001
20
171
10
-127.00000000000001
20
168
0
LWPOLYLINE
5
148
100
AcDbEntity
8
0
100
AcDbPolyline
90
4
70
1
43
0.0
10
-120
20
145
10
-120
20
148
10
-127.00000000000001
20
148
10
-127.00000000000001
20
145
0
LWPOLYLINE
5
149
100
AcDbEntity
8
0
100
AcDbPolyline
90
4
70
1
43
0.0
10
-170
20
348.00000000000006
10
-170
20
351
10
-177
20
351
10
-177
20
348.00000000000006
0
LWPOLYLINE
5
150
100
AcDbEntity
8
0
100
AcDbPolyline
90
4
70
1
43
0.0
10
-170
20
330
10
-170
20
333.00000000000006
10
-177
20
333.00000000000006
10
-177
20
330
0
LWPOLYLINE
5
151
100
AcDbEntity
8
0
100
AcDbPolyline
90
4
70
1
43
0.0
10
-177.5
20
562.5
10
-177.5
20
565.5
10
-184.5
20
565.5
10
-184.5
20
562.5
0
LWPOLYLINE
5
152
100
AcDbEntity
8
0
100
AcDbPolyline
90
4
70
1
43
0.0
10
-177.5
20
539.5
10
-177.5
20
542.5
10
-184.5
20
542.5
10
-184.5
20
539.5
0
LWPOLYLINE
5
153
100
AcDbEntity
8
0
100
AcDbPolyline
90
4
70
1
43
0.0
10
-227.00000000000003
20
527.5
10
-227.00000000000003
20
534.5
10
-230
20
534.5
10
-230
20
527.5
0
LWPOLYLINE
5
154
100
AcDbEntity
8
0
100
AcDbPolyline
90
4
70
1
43
0.0
10
-230
20
348.00000000000006
10
-230
20
351
10
-237.00000000000003
20
351
10
-237.00000000000003
20
348.00000000000006
0
LWPOLYLINE
5
155
100
AcDbEntity
8
0
100
AcDbPolyline
90
4
70
1
43
0.0
10
-230
20
330
10
-230
20
333.00000000000006
10
-237.00000000000003
20
333.00000000000006
10
-237.00000000000003
20
330
0
LWPOLYLINE
5
156
100
AcDbEntity
8
0
100
AcDbPolyline
90
4
70
1
43
0.0
10
-230
20
168
10
-230
20
171
10
-237.00000000000003
20
171
10
-237.00000000000003
20
168
0
LWPOLYLINE
5
157
100
AcDbEntity
8
0
100
AcDbPolyline
90
4
70
1
43
0.0
10
-230
20
145
10
-230
20
148
10
-237.00000000000003
20
148
10
-237.00000000000003
20
145
0
LWPOLYLINE
5
158
100
AcDbEntity
8
0
100
AcDbPolyline
90
4
70
1
43
0.0
10
-240
20
527.5
10
-240
20
534.5
10
-243
20
534.5
10
-243
20
527.5
0
LWPOLYLINE
5
159
100
AcDbEntity
8
0
100
AcDbPolyline
90
4
70
1
43
0.0
10
-242.00000000000003
20
446
10
-242.00000000000003
20
453.00000000000006
10
-245
20
453.00000000000006
10
-245
20
446
0
LWPOLYLINE
5
160
100
AcDbEntity
8
0
100
AcDbPolyline
90
4
70
1
43
0.0
10
-242.00000000000003
20
406
10
-242.00000000000003
20
413.00000000000006
10
-245
20
413.00000000000006
10
-245
20
406
0
LWPOLYLINE
5
161
100
AcDbEntity
8
0
100
AcDbPolyline
90
4
70
1
43
0.0
10
-242.00000000000003
20
356
10
-242.00000000000003
20
363.00000000000006
10
-245
20
363.00000000000006
10
-245
20
356
0
LWPOLYLINE
5
162
100
AcDbEntity
8
0
100
AcDbPolyline
90
4
70
1
43
0.0
10
-265
20
446
10
-265
20
453.00000000000006
10
-268
20
453.00000000000006
10
-268
20
446
0
LWPOLYLINE
5
163
100
AcDbEntity
8
0
100
AcDbPolyline
90
4
70
1
43
0.0
10
-265
20
406
10
-265
20
413.00000000000006
10
-268
20
413.00000000000006
10
-268
20
406
0
LWPOLYLINE
5
164
100
AcDbEntity
8
0
100
AcDbPolyline
90
4
70
1
43
0.0
10
-265
20
356
10
-265
20
363.00000000000006
10
-268
20
363.00000000000006
10
-268
20
356
0
LWPOLYLINE
5
165
100
AcDbEntity
8
0
100
AcDbPolyline
90
4
70
1
43
0.0
10
-273
20
398.00000000000006
10
-273
20
401
10
-280
20
401
10
-280
20
398.00000000000006
0
LWPOLYLINE
5
166
100
AcDbEntity
8
0
100
AcDbPolyline
90
4
70
1
43
0.0
10
-273
20
375
10
-273
20
378.00000000000006
10
-280
20
378.00000000000006
10
-280
20
375
0
ENDSEC
0
SECTION
2
OBJECTS
0
DICTIONARY
5
C
100
AcDbDictionary
3
ACAD_GROUP
350
D
3
ACAD_MLINESTYLE
350
17
0
DICTIONARY
5
D
100
AcDbDictionary
0
DICTIONARY
5
1A
330
C
100
AcDbDictionary
0
DICTIONARY
5
17
100
AcDbDictionary
0
ENDSEC
0
EOF
